<svg width="225.000000" height="72.000000" viewBox="0 0 225 72" fill="none" xmlns="http://www.w3.org/2000/svg" xmlns:xlink="http://www.w3.org/1999/xlink">
	<desc>
			Created with Pixso.
	</desc>
	<defs/>
	<rect width="225.000000" height="72.000000" fill="#FFFFFF" fill-opacity="0"/>
	<path d="M69.53 36.29C68.43 36.92 67.1 37.42 65.53 37.78C63.96 38.15 62.33 38.33 60.64 38.33C58.35 38.33 56.41 38.06 54.8 37.51Q52.41 36.68 51.19 35.22C50.39 34.24 50 33.11 50 31.82Q50 30.7 50.41 29.75Q50.61 29.28 50.91 28.86Q51.02 28.7 51.15 28.55Q52.03 27.49 53.45 26.87Q52.55 26.41 51.95 25.69L51.95 25.69Q51.71 25.41 51.52 25.09Q51.29 24.68 51.15 24.24L51.15 24.24Q50.88 23.44 50.88 22.56Q50.88 21.82 51.07 21.14Q51.34 20.17 51.98 19.32Q53.11 17.85 55.41 16.96Q57.7 16.07 61.06 16.07Q62.75 16.07 64.39 16.33L64.39 16.33Q64.81 16.39 65.22 16.47Q67.27 16.87 68.83 17.54L67.18 22.07Q65.32 21.25 63.38 20.96Q62.36 20.81 61.31 20.81Q59.14 20.81 58.07 21.39Q57.36 21.76 57.12 22.32Q57 22.61 57 22.95Q57 23.55 57.27 23.95Q57.85 24.79 59.66 24.79L65.71 24.79L65.71 29.41L59.26 29.41Q57.7 29.41 56.91 29.93Q56.55 30.15 56.35 30.47Q56.11 30.86 56.11 31.39Q56.11 31.71 56.22 31.99Q56.47 32.61 57.27 33.01C58.05 33.4 59.25 33.59 60.88 33.59C62.04 33.59 63.23 33.44 64.46 33.14C65.7 32.81 66.78 32.37 67.7 31.82L69.53 36.29ZM170.68 21.33L170.68 34.88C170.68 37.96 169.84 40.26 168.17 41.79C166.5 43.34 164.09 44.11 160.95 44.11C159.32 44.11 157.79 43.93 156.37 43.56C154.94 43.2 153.73 42.66 152.73 41.94L154.84 37.88C155.51 38.43 156.36 38.85 157.38 39.16C158.42 39.49 159.44 39.65 160.43 39.65C161.96 39.65 163.08 39.31 163.8 38.64C164.51 37.97 164.87 36.97 164.87 35.64L164.87 35.09C163.75 36.4 162.11 37.05 159.95 37.05C158.48 37.05 157.12 36.72 155.88 36.07C154.64 35.4 153.65 34.46 152.91 33.26Q152.77 33.01 152.64 32.76Q151.81 31.11 151.81 29.04Q151.81 27.02 152.62 25.41Q152.75 25.14 152.91 24.88Q153.52 23.86 154.37 23.11Q155.05 22.5 155.88 22.07C157.12 21.39 158.48 21.06 159.95 21.06Q162.64 21.06 164.24 22.38Q164.75 22.8 165.14 23.35L165.14 21.33L170.68 21.33ZM85.12 29.22C87.01 29.85 87.96 31.16 87.96 33.14C87.96 34.62 87.38 35.8 86.22 36.65C85.06 37.49 83.34 37.91 81.08 37.91L71.76 37.91L71.76 21.33L80.65 21.33C82.81 21.33 84.49 21.71 85.67 22.47C86.87 23.22 87.47 24.28 87.47 25.64Q87.47 26.52 87.15 27.24Q87.03 27.51 86.86 27.75C86.45 28.37 85.87 28.86 85.12 29.22ZM98.66 32L96.71 32L96.71 37.91L90.9 37.91L90.9 21.33L96.71 21.33L96.71 27.45L98.78 27.45L102.85 21.33L109 21.33L103.43 29.28L109.36 37.91L102.52 37.91L98.66 32ZM128.17 21.33L128.17 37.91L122.36 37.91L122.36 25.95L118.17 25.95L118.05 28.49C117.97 30.65 117.75 32.43 117.41 33.84C117.06 35.25 116.49 36.35 115.69 37.14Q115.53 37.3 115.35 37.44Q114.22 38.3 112.42 38.3C111.71 38.3 110.77 38.17 109.61 37.91L109.85 33.17C110.22 33.21 110.47 33.23 110.59 33.23C111.22 33.23 111.7 33.02 112.02 32.62C112.35 32.21 112.58 31.67 112.7 31C112.82 30.3 112.9 29.39 112.94 28.24L113.19 21.33L128.17 21.33ZM149.14 21.33L149.14 37.91L143.6 37.91L143.6 36.16C142.99 36.82 142.25 37.32 141.4 37.66Q141.23 37.73 141.06 37.79Q139.96 38.18 138.71 38.18C136.55 38.18 134.83 37.55 133.54 36.29Q131.64 34.39 131.64 30.6L131.64 21.33L137.45 21.33L137.45 29.65C137.45 32.04 138.38 33.23 140.24 33.23C141.15 33.23 141.9 32.91 142.47 32.28C143.04 31.63 143.33 30.64 143.33 29.31L143.33 21.33L149.14 21.33ZM76.95 28L80.13 28C81.48 28 82.15 27.5 82.15 26.5C82.15 25.54 81.48 25.06 80.13 25.06L76.95 25.06L76.95 28ZM161.32 32.43C162.36 32.43 163.22 32.12 163.89 31.49C164.58 30.85 164.93 30.04 164.93 29.04C164.93 28.04 164.59 27.23 163.92 26.62C163.25 25.99 162.38 25.68 161.32 25.68C160.26 25.68 159.38 25.99 158.69 26.62C158.02 27.23 157.68 28.04 157.68 29.04C157.68 30.04 158.03 30.85 158.72 31.49C159.42 32.12 160.28 32.43 161.32 32.43ZM80.56 34.15C81.97 34.15 82.67 33.64 82.67 32.62Q82.67 32.07 82.41 31.72Q81.94 31.09 80.62 31.09L76.95 31.09L76.95 34.15L80.56 34.15ZM59.42 46L59.42 55.98L56.63 55.98L56.63 48.24L52.83 48.24L52.83 55.98L50.06 55.98L50.06 46L59.42 46ZM65.53 48.13C66.38 48.13 67.11 48.29 67.74 48.61C68.37 48.94 68.85 49.4 69.18 50.01C69.52 50.61 69.69 51.31 69.69 52.12C69.69 52.92 69.54 53.62 69.22 54.23C68.91 54.83 68.47 55.29 67.9 55.63Q67.89 55.63 67.88 55.64Q67.03 56.11 65.92 56.11C65.03 56.11 64.34 55.84 63.83 55.3L63.83 58.75L61.13 58.75L61.13 52.15Q61.13 51.06 61.58 50.2L61.58 50.2Q61.62 50.12 61.67 50.04C62.03 49.43 62.54 48.96 63.21 48.63C63.87 48.3 64.65 48.13 65.53 48.13ZM74.81 56.11C73.98 56.11 73.24 55.94 72.57 55.6C71.91 55.26 71.38 54.78 71 54.17C70.63 53.57 70.45 52.88 70.45 52.11C70.45 51.35 70.63 50.66 71 50.05C71.38 49.45 71.9 48.97 72.56 48.64C73.22 48.3 73.97 48.13 74.81 48.13C75.65 48.13 76.4 48.3 77.06 48.64C77.73 48.97 78.24 49.45 78.62 50.05C78.99 50.65 79.17 51.34 79.17 52.11Q79.17 52.98 78.85 53.72L78.85 53.72Q78.75 53.96 78.62 54.17C78.24 54.78 77.73 55.26 77.06 55.6C76.4 55.94 75.65 56.11 74.81 56.11ZM84.53 54.04C84.9 54.04 85.22 53.99 85.49 53.89C85.76 53.78 86.04 53.61 86.31 53.37L87.73 54.86C86.99 55.69 85.9 56.11 84.45 56.11C83.54 56.11 82.75 55.94 82.07 55.6C81.38 55.26 80.85 54.78 80.47 54.17C80.1 53.57 79.91 52.88 79.91 52.11C79.91 51.35 80.1 50.67 80.47 50.07C80.84 49.46 81.35 48.98 82 48.64C82.65 48.3 83.38 48.13 84.19 48.13Q85.16 48.13 85.98 48.48Q86.11 48.53 86.24 48.6C86.87 48.9 87.37 49.35 87.74 49.95C88.11 50.54 88.3 51.25 88.3 52.06L82.78 53.12C83.07 53.74 83.66 54.04 84.53 54.04ZM109.16 48.13C110.11 48.13 110.87 48.41 111.43 48.98C112 49.55 112.28 50.41 112.28 51.56L112.28 55.98L109.57 55.98L109.57 52.01C109.57 51.46 109.47 51.07 109.26 50.81C109.06 50.55 108.78 50.42 108.41 50.42C108 50.42 107.67 50.57 107.42 50.85C107.17 51.14 107.05 51.57 107.05 52.15L107.05 55.98L104.34 55.98L104.34 52.01C104.34 50.95 103.95 50.42 103.17 50.42C102.76 50.42 102.42 50.57 102.18 50.85C101.93 51.14 101.81 51.57 101.81 52.15L101.81 55.98L99.1 55.98L99.1 48.26L101.68 48.26L101.68 49.07C101.96 48.76 102.3 48.52 102.69 48.37C103.09 48.21 103.52 48.13 103.99 48.13C104.53 48.13 105.01 48.23 105.44 48.43C105.87 48.63 106.21 48.93 106.48 49.34C106.79 48.95 107.17 48.65 107.64 48.44C108.1 48.23 108.61 48.13 109.16 48.13ZM140.75 54.04C141.12 54.04 141.44 53.99 141.7 53.89C141.98 53.78 142.25 53.61 142.53 53.37L143.94 54.86C143.21 55.69 142.12 56.11 140.66 56.11C139.76 56.11 138.97 55.94 138.28 55.6C137.6 55.26 137.06 54.78 136.68 54.17C136.31 53.57 136.13 52.88 136.13 52.11C136.13 51.35 136.31 50.67 136.68 50.07C137.06 49.46 137.56 48.98 138.21 48.64C138.87 48.3 139.6 48.13 140.41 48.13C141.16 48.13 141.84 48.29 142.46 48.6C143.09 48.9 143.58 49.35 143.95 49.95C144.33 50.54 144.51 51.25 144.51 52.06L138.99 53.12C139.29 53.74 139.87 54.04 140.75 54.04ZM153.83 56.11C152.97 56.11 152.21 55.94 151.53 55.6C150.86 55.26 150.33 54.78 149.95 54.17C149.58 53.57 149.39 52.88 149.39 52.11C149.39 51.34 149.58 50.65 149.95 50.05C150.33 49.45 150.86 48.97 151.53 48.64C152.21 48.3 152.97 48.13 153.83 48.13C154.7 48.13 155.46 48.32 156.1 48.7C156.73 49.07 157.18 49.59 157.45 50.25L155.35 51.32C155 50.63 154.49 50.28 153.81 50.28Q153.38 50.28 153.03 50.46Q152.8 50.57 152.6 50.77C152.29 51.09 152.13 51.54 152.13 52.11C152.13 52.69 152.29 53.14 152.6 53.47C152.92 53.8 153.33 53.96 153.81 53.96C154.49 53.96 155 53.61 155.35 52.92L157.45 53.99C157.18 54.65 156.73 55.18 156.1 55.56C155.46 55.93 154.7 56.11 153.83 56.11ZM172.23 56.11C171.38 56.11 170.61 55.94 169.94 55.6C169.26 55.26 168.74 54.78 168.35 54.17C167.98 53.57 167.8 52.88 167.8 52.11C167.8 51.34 167.98 50.65 168.35 50.05C168.74 49.45 169.26 48.97 169.94 48.64C170.61 48.3 171.38 48.13 172.23 48.13C173.11 48.13 173.86 48.32 174.5 48.7C175.14 49.07 175.59 49.59 175.85 50.25L173.76 51.32C173.41 50.63 172.89 50.28 172.22 50.28Q171.78 50.28 171.43 50.46Q171.2 50.57 171.01 50.77C170.69 51.09 170.54 51.54 170.54 52.11C170.54 52.69 170.69 53.14 171.01 53.47C171.33 53.8 171.73 53.96 172.22 53.96C172.89 53.96 173.41 53.61 173.76 52.92L175.85 53.99C175.59 54.65 175.14 55.18 174.5 55.56C173.86 55.93 173.11 56.11 172.23 56.11ZM187.05 48.13C188 48.13 188.76 48.41 189.32 48.98C189.89 49.55 190.17 50.41 190.17 51.56L190.17 55.98L187.46 55.98L187.46 52.01C187.46 51.46 187.36 51.07 187.15 50.81C186.95 50.55 186.67 50.42 186.29 50.42C185.89 50.42 185.56 50.57 185.31 50.85C185.06 51.14 184.94 51.57 184.94 52.15L184.94 55.98L182.23 55.98L182.23 52.01C182.23 50.95 181.84 50.42 181.06 50.42C180.64 50.42 180.31 50.57 180.07 50.85C179.82 51.14 179.69 51.57 179.69 52.15L179.69 55.98L176.99 55.98L176.99 48.26L179.57 48.26L179.57 49.07C179.85 48.76 180.19 48.52 180.58 48.37C180.98 48.21 181.41 48.13 181.88 48.13C182.42 48.13 182.9 48.23 183.33 48.43C183.76 48.63 184.1 48.93 184.37 49.34C184.67 48.95 185.06 48.65 185.53 48.44C185.99 48.23 186.5 48.13 187.05 48.13ZM195.9 54.04C196.27 54.04 196.59 53.99 196.86 53.89C197.13 53.78 197.41 53.61 197.69 53.37L199.1 54.86C198.37 55.69 197.27 56.11 195.82 56.11C194.91 56.11 194.12 55.94 193.44 55.6C192.75 55.26 192.22 54.78 191.84 54.17Q191.71 53.96 191.61 53.72Q191.28 52.98 191.28 52.11C191.28 51.35 191.47 50.67 191.84 50.07C192.21 49.46 192.72 48.98 193.37 48.64C194.02 48.3 194.75 48.13 195.56 48.13C196.31 48.13 197 48.29 197.61 48.6C198.24 48.9 198.74 49.35 199.11 49.95C199.48 50.54 199.67 51.25 199.67 52.06L194.15 53.12C194.44 53.74 195.03 54.04 195.9 54.04ZM93.21 53.23L92.3 53.23L92.3 55.98L89.59 55.98L89.59 48.26L92.3 48.26L92.3 51.11L93.27 51.11L95.16 48.26L98.03 48.26L95.43 51.96L98.2 55.98L95 55.98L93.21 53.23ZM113.92 48.26L116.62 48.26L116.62 51.12L119.4 51.12L119.4 48.26L122.11 48.26L122.11 55.98L119.4 55.98L119.4 53.28L116.62 53.28L116.62 55.98L113.92 55.98L113.92 48.26ZM127.61 56.21C125.05 56.21 123.78 55.11 123.78 52.92L123.78 48.26L126.47 48.26L126.47 50.71C126.67 50.58 126.94 50.47 127.27 50.38C127.61 50.3 128 50.25 128.44 50.25C129.39 50.25 130.13 50.5 130.67 50.98C131.22 51.46 131.49 52.16 131.49 53.1C131.49 54.12 131.14 54.9 130.43 55.43C129.74 55.95 128.8 56.21 127.61 56.21ZM132.13 48.26L134.84 48.26L134.84 55.98L132.13 55.98L132.13 48.26ZM166.54 48.26L166.54 55.98L163.96 55.98L163.96 55.17C163.67 55.48 163.33 55.71 162.93 55.87C162.54 56.03 162.12 56.11 161.67 56.11C160.67 56.11 159.87 55.82 159.27 55.23C158.68 54.64 158.38 53.76 158.38 52.58L158.38 48.26L161.09 48.26L161.09 52.13C161.09 53.25 161.52 53.8 162.39 53.8C162.82 53.8 163.16 53.66 163.43 53.36C163.7 53.06 163.83 52.6 163.83 51.98L163.83 48.26L166.54 48.26ZM208.46 55.98L208.46 51.92L206.48 55.3L205.32 55.3L203.4 51.86L203.4 55.98L200.96 55.98L200.96 48.26L203.81 48.26L205.96 52.29L208.33 48.26L210.88 48.26L210.89 55.98L208.46 55.98ZM216.4 56.21C213.84 56.21 212.57 55.11 212.57 52.92L212.57 48.26L215.26 48.26L215.26 50.71Q215.56 50.51 216.06 50.38C216.4 50.3 216.79 50.25 217.23 50.25C218.18 50.25 218.92 50.5 219.46 50.98C220.01 51.46 220.28 52.16 220.28 53.1C220.28 54.12 219.93 54.9 219.22 55.43C218.53 55.95 217.59 56.21 216.4 56.21ZM220.92 48.26L223.63 48.26L223.63 55.98L220.92 55.98L220.92 48.26ZM84.21 50.05C83.74 50.05 83.36 50.2 83.06 50.5C82.77 50.78 82.6 51.19 82.57 51.74L85.7 51.12C85.61 50.8 85.43 50.54 85.16 50.35C84.89 50.15 84.58 50.05 84.21 50.05ZM140.42 50.05C139.95 50.05 139.57 50.2 139.28 50.5C138.98 50.78 138.82 51.19 138.78 51.74L141.92 51.12C141.82 50.8 141.64 50.54 141.37 50.35C141.11 50.15 140.79 50.05 140.42 50.05ZM195.58 50.05C195.11 50.05 194.73 50.2 194.44 50.5C194.14 50.78 193.97 51.19 193.94 51.74L197.07 51.12C196.98 50.8 196.8 50.54 196.53 50.35C196.26 50.15 195.95 50.05 195.58 50.05ZM65.4 53.96C65.89 53.96 66.28 53.79 66.57 53.46C66.88 53.12 67.03 52.67 67.03 52.12C67.03 51.57 66.88 51.13 66.57 50.79C66.28 50.45 65.89 50.28 65.4 50.28C64.92 50.28 64.53 50.45 64.23 50.79Q64.19 50.85 64.15 50.9Q63.79 51.38 63.79 52.12C63.79 52.68 63.93 53.13 64.22 53.46C64.51 53.79 64.91 53.96 65.4 53.96ZM74.81 53.96C75.28 53.96 75.67 53.8 75.98 53.47C76.28 53.14 76.43 52.69 76.43 52.11C76.43 51.54 76.28 51.09 75.98 50.77C75.67 50.44 75.28 50.28 74.81 50.28C74.33 50.28 73.94 50.44 73.64 50.77C73.34 51.09 73.18 51.54 73.18 52.11C73.18 52.69 73.34 53.14 73.64 53.47C73.94 53.8 74.33 53.96 74.81 53.96ZM127.61 54.36C127.98 54.36 128.26 54.25 128.45 54.03C128.64 53.81 128.74 53.52 128.74 53.16C128.74 52.81 128.64 52.53 128.45 52.33C128.26 52.13 127.99 52.03 127.62 52.03C127.37 52.03 127.14 52.08 126.94 52.18C126.74 52.27 126.58 52.4 126.47 52.56L126.47 53.16C126.47 53.53 126.56 53.83 126.75 54.04C126.94 54.25 127.23 54.36 127.61 54.36ZM216.4 54.36C216.77 54.36 217.05 54.25 217.24 54.03C217.43 53.81 217.53 53.52 217.53 53.16C217.53 52.81 217.43 52.53 217.24 52.33C217.05 52.13 216.78 52.03 216.41 52.03C216.16 52.03 215.93 52.08 215.73 52.18C215.53 52.27 215.37 52.4 215.26 52.56L215.26 53.16C215.26 53.53 215.35 53.83 215.54 54.04C215.73 54.25 216.02 54.36 216.4 54.36Z" fill="#000000" fill-opacity="1.000000" fill-rule="evenodd"/>
	<rect width="38.117649" height="72.000000" transform="translate(-0.280762 0.000000)" fill="#FFFFFF" fill-opacity="0"/>
	<path d="M16.35 24.27L8.34 42.71L1.01 42.71L1.01 44.31L7.51 44.31C7.51 44.31 1.93 56.71 1.01 59.03C0.08 61.36 2.87 62.44 2.87 62.44L-0.29 72L0.18 72L12.58 44.31L17.59 44.31L17.59 46.38C17.53 46.57 17.66 46.92 18.52 47.02L18.52 47.05C18.61 47.05 18.69 47.05 18.77 47.04C18.85 47.05 18.94 47.05 19.03 47.05L19.03 47.02C19.89 46.92 20.02 46.57 19.96 46.38L19.96 44.31L24.97 44.31L37.37 72L37.83 72L34.68 62.44C34.68 62.44 37.47 61.36 36.54 59.03C35.61 56.71 30.03 44.31 30.03 44.31L36.54 44.31L36.54 42.71L29.21 42.71L21.2 24.27L16.35 24.27ZM18.77 30.09L13.35 42.71L17.59 42.71L17.59 40.33C17.59 39.85 18.27 39.74 18.77 39.75C19.28 39.74 19.96 39.85 19.96 40.33L19.96 42.71L24.2 42.71L18.77 30.09Z" fill="#FF9900" fill-opacity="1.000000" fill-rule="evenodd"/>
	<path d="M20.37 0L17.28 0L17.28 7.78C13.34 8.51 10.35 11.96 10.35 16.11C10.35 20.79 14.15 24.58 18.83 24.58C23.5 24.58 27.3 20.79 27.3 16.11C27.3 11.96 24.31 8.51 20.37 7.78L20.37 0ZM24.3 16.11C24.3 19.13 21.85 21.58 18.83 21.58C15.8 21.58 13.35 19.13 13.35 16.11C13.35 13.09 15.8 10.63 18.83 10.63C21.85 10.63 24.3 13.09 24.3 16.11Z" fill="#000000" fill-opacity="1.000000" fill-rule="evenodd"/>
</svg>
